# xmcd CD database file
#
# Track frame offsets:
#	150
#	33820
#	48567
#	75656
#	92177
#	134483
#	150840
#	164575
#	179028
#	192866
#	217653
#	230974
#	247878
#	265531
#	275206
#	290923
#	304996
#	335185
#	345420
#
# Disc length: 4773 seconds
#
# Revision: 0
# Processed by: cddbd v1.5.2PL0 Copyright (c) Steve Scherf et al.
# Submitted via: CDex 1.70beta2
#
DISCID=1e12a313
DTITLE=Peter Ind e.a. - 9 Classics Albums
DYEAR=2013
DGENRE=Jazz
TTITLE0=Blues at the Den
TTITLE1=Arak
TTITLE2=Yesterdays
TTITLE3=Renee
TTITLE4=Love Me or Leave Me
TTITLE5=Ind Imp
TTITLE6=Easy Livin'
TTITLE7=Nursery Rhyme
TTITLE8=Limehouse Blues
TTITLE9=I'll Remember April
TTITLE10=Skylark
TTITLE11=Mean to Me
TTITLE12=317 East 32nd
TTITLE13=Bop Goes the Leesel
TTITLE14=Time on My Hands
TTITLE15=This Can't Be Love
TTITLE16=My One and Only
TTITLE17=I Want to Be Happy
TTITLE18=52nd Street Theme
EXTD=YEAR: 2013
EXTT0=
EXTT1=
EXTT2=
EXTT3=
EXTT4=
EXTT5=
EXTT6=
EXTT7=
EXTT8=
EXTT9=
EXTT10=
EXTT11=
EXTT12=
EXTT13=
EXTT14=
EXTT15=
EXTT16=
EXTT17=
EXTT18=
PLAYORDER=
